<svg xmlns="http://www.w3.org/2000/svg" xmlns:xlink="http://www.w3.org/1999/xlink" viewBox="0 0 430 430" width="430" height="430" preserveAspectRatio="xMidYMid meet" style="width: 100%; height: 100%; transform: translate3d(0px, 0px, 0px); content-visibility: visible;"><defs><clipPath id="__lottie_element_26"><rect width="430" height="430" x="0" y="0"/></clipPath><clipPath id="__lottie_element_28"><path d="M0,0 L430,0 L430,430 L0,430z"/></clipPath></defs><g clip-path="url(#__lottie_element_26)"><g clip-path="url(#__lottie_element_28)" transform="matrix(1,0,0,1,0,0)" opacity="1" style="display: block;"><g transform="matrix(1,0,0,1,-35,-35)" opacity="1" style="display: block;"><g opacity="1" transform="matrix(1,0,0,1,376.5899963378906,376.760986328125)"><path stroke-linecap="round" stroke-linejoin="round" fill-opacity="0" class="primary" stroke="rgb(197,156,244)" stroke-opacity="1" stroke-width="12" d=" M-219.82200622558594,33.358001708984375 C-219.82200622558594,33.358001708984375 -265.10400390625,33.358001708984375 -265.10400390625,33.358001708984375 C-276.9419860839844,33.358001708984375 -286.5379943847656,23.761999130249023 -286.5379943847656,11.923999786376953 C-286.5379943847656,11.923999786376953 -286.5379943847656,-33.358001708984375 -286.5379943847656,-33.358001708984375 M-286.5379943847656,-220.16400146484375 C-286.5379943847656,-220.16400146484375 -286.5379943847656,-265.4460144042969 -286.5379943847656,-265.4460144042969 C-286.5379943847656,-277.28399658203125 -276.9419860839844,-286.8800048828125 -265.10400390625,-286.8800048828125 C-265.10400390625,-286.8800048828125 -219.82200622558594,-286.8800048828125 -219.82200622558594,-286.8800048828125 M33.358001708984375,-219.9530029296875 C33.358001708984375,-219.9530029296875 33.358001708984375,-265.2340087890625 33.358001708984375,-265.2340087890625 C33.358001708984375,-277.0719909667969 23.761999130249023,-286.66900634765625 11.923999786376953,-286.66900634765625 C11.923999786376953,-286.66900634765625 -33.358001708984375,-286.66900634765625 -33.358001708984375,-286.66900634765625 M-33.358001708984375,33.358001708984375 C-33.358001708984375,33.358001708984375 11.923999786376953,33.358001708984375 11.923999786376953,33.358001708984375 C23.761999130249023,33.358001708984375 33.358001708984375,23.761999130249023 33.358001708984375,11.923999786376953 C33.358001708984375,11.923999786376953 33.358001708984375,-33.358001708984375 33.358001708984375,-33.358001708984375"/></g></g><g transform="matrix(1,0,0,1,-35,-35)" opacity="1" style="display: block;"><g opacity="1" transform="matrix(1,0,0,1,250.00599670410156,180.07000732421875)"><path stroke-linecap="round" stroke-linejoin="round" fill-opacity="0" class="primary" stroke="rgb(197,156,244)" stroke-opacity="1" stroke-width="12" d=" M0,-42.165000915527344 C0,-42.165000915527344 111.19200134277344,-1.5880000591278076 111.19200134277344,-1.5880000591278076 C111.19200134277344,-1.5880000591278076 0,42.165000915527344 0,42.165000915527344 C0,42.165000915527344 -111.19200134277344,-1.5880000591278076 -111.19200134277344,-1.5880000591278076 C-111.19200134277344,-1.5880000591278076 0,-42.165000915527344 0,-42.165000915527344z"/></g><g opacity="1" transform="matrix(1,0,0,1,250.00599670410156,320.07000732421875)"><path stroke-linecap="round" stroke-linejoin="round" fill-opacity="0" class="primary" stroke="rgb(197,156,244)" stroke-opacity="1" stroke-width="12" d=" M111.19200134277344,-1.5880000591278076 C111.19200134277344,-1.5880000591278076 0,42.165000915527344 0,42.165000915527344 C0,42.165000915527344 -102.44000244140625,1.8559999465942383 -110.66799926757812,-1.3819999694824219"/></g></g><g transform="matrix(1,0,0,1,216.25,215)" opacity="1" style="display: block;"><g opacity="1" transform="matrix(1,0,0,1,0,0)"><path stroke-linecap="round" stroke-linejoin="round" fill-opacity="0" class="primary" stroke="rgb(197,156,244)" stroke-opacity="1" stroke-width="12" d=" M110.5,-70.75 C110.5,-70.75 110.5,-53.0369987487793 110.5,-30.222999572753906"/></g></g><g transform="matrix(1,0,0,1,104.61900329589844,257.7239990234375)" opacity="1" style="display: block;"><g opacity="1" transform="matrix(1,0,0,1,0,0)"><path stroke-linecap="round" stroke-linejoin="round" fill-opacity="0" class="primary" stroke="rgb(197,156,244)" stroke-opacity="1" stroke-width="12" d=" M110.5,-70.75 C110.5,-70.75 110.5,69 110.5,69"/></g></g><g transform="matrix(1,0,0,1,-7.0059967041015625,214.5989990234375)" opacity="1" style="display: block;"><g opacity="1" transform="matrix(1,0,0,1,0,0)"><path stroke-linecap="round" stroke-linejoin="round" fill-opacity="0" class="primary" stroke="rgb(197,156,244)" stroke-opacity="1" stroke-width="12" d=" M110.5,-70.75 C110.5,-70.75 110.5,69 110.5,69"/></g></g><g transform="matrix(1,0,0,1,104.49400329589844,257.9739990234375)" opacity="1" style="display: none;"><g opacity="1" transform="matrix(1,0,0,1,0,0)"><path stroke-linecap="butt" stroke-linejoin="round" fill-opacity="0" stroke="rgb(255,255,255)" stroke-opacity="1" stroke-width="2" d="M0 0"/></g><g opacity="1" transform="matrix(1,0,0,1,0,0)"><path stroke-linecap="round" stroke-linejoin="round" fill-opacity="0" class="primary" stroke="rgb(197,156,244)" stroke-opacity="1" stroke-width="12" d=" M110.5,-70.75 C110.5,-70.75 110.5,69 110.5,69"/></g></g><g transform="matrix(1,0,0,1,215.86898803710938,214.3489990234375)" opacity="1" style="display: none;"><g opacity="1" transform="matrix(1,0,0,1,0,0)"><path stroke-linecap="round" stroke-linejoin="round" fill-opacity="0" class="primary" stroke="rgb(197,156,244)" stroke-opacity="1" stroke-width="12" d=" M110.5,-70.75 C110.5,-70.75 110.5,-53.0369987487793 110.5,-30.222999572753906"/></g></g><g transform="matrix(1,0,0,1,-35,-35.00001525878906)" opacity="1" style="display: block;"><g opacity="1" transform="matrix(1,0,0,1,0,0)"><g opacity="1" transform="matrix(1,0,0,1,323.7309875488281,268.00201416015625)"><path stroke-linecap="round" stroke-linejoin="round" fill-opacity="0" class="secondary" stroke="rgb(237,102,170)" stroke-opacity="1" stroke-width="12" d=" M22.06399917602539,25.68000030517578 C22.06399917602539,25.68000030517578 0.7319999933242798,-25.68000030517578 0.7319999933242798,-25.68000030517578 C0.7319999933242798,-25.68000030517578 -22.06399917602539,25.68000030517578 -22.06399917602539,25.68000030517578"/></g><g opacity="1" transform="matrix(1,0,0,1,323.9110107421875,281.04400634765625)"><path stroke-linecap="round" stroke-linejoin="round" fill-opacity="0" class="secondary" stroke="rgb(237,102,170)" stroke-opacity="1" stroke-width="12" d=" M16.635000228881836,0 C16.635000228881836,0 -16.635000228881836,0 -16.635000228881836,0"/></g></g><g opacity="1" transform="matrix(1,0,0,1,0,0)"><g opacity="1" transform="matrix(1,0,0,1,0,0)"><g opacity="1" transform="matrix(1,0,0,1,387.11700439453125,256.0539855957031)"><g opacity="1" transform="matrix(1,0,0,1,0,0)"><path stroke-linecap="round" stroke-linejoin="round" fill-opacity="0" class="secondary" stroke="rgb(237,102,170)" stroke-opacity="1" stroke-width="12" d=" M-16.243000030517578,-13.732000350952148 C-16.243000030517578,-13.732000350952148 1.1339999437332153,-13.732000350952148 1.1339999437332153,-13.732000350952148 C9.47700023651123,-13.732000350952148 16.304000854492188,-7.552000045776367 16.304000854492188,0 C16.304000854492188,3.7709999084472656 14.590999603271484,7.205999851226807 11.843000411987305,9.694000244140625 C9.095000267028809,12.182000160217285 5.298999786376953,13.732000350952148 1.1339999437332153,13.732000350952148 C1.1339999437332153,13.732000350952148 -16.304000854492188,13.732000350952148 -16.304000854492188,13.732000350952148"/></g></g><g opacity="1" transform="matrix(1,0,0,1,396.0639953613281,281.72100830078125)"><path stroke-linecap="round" stroke-linejoin="round" fill-opacity="0" class="secondary" stroke="rgb(237,102,170)" stroke-opacity="1" stroke-width="12" d=" M-6.665999889373779,-11.9350004196167 C-6.665999889373779,-11.9350004196167 6.665999889373779,11.9350004196167 6.665999889373779,11.9350004196167"/></g></g><g opacity="1" transform="matrix(1,0,0,1,370.8739929199219,268.00201416015625)"><path stroke-linecap="round" stroke-linejoin="round" fill-opacity="0" class="secondary" stroke="rgb(237,102,170)" stroke-opacity="1" stroke-width="12" d=" M0,-25.68000030517578 C0,-25.68000030517578 0,25.68000030517578 0,25.68000030517578"/></g></g></g></g></g></svg>